<?xml version="1.0" standalone="no"?><!DOCTYPE svg PUBLIC "-//W3C//DTD SVG 1.1//EN" "http://www.w3.org/Graphics/SVG/1.1/DTD/svg11.dtd"><svg t="1490927030513" class="icon" style="" viewBox="0 0 1024 1024" version="1.1" xmlns="http://www.w3.org/2000/svg" p-id="1428" xmlns:xlink="http://www.w3.org/1999/xlink" width="200" height="200"><defs><style type="text/css"></style></defs><path d="M512.001023 362.146017c-82.077344 0-148.613736 67.092048-148.613736 149.858076 0 82.754772 66.536392 149.84375 148.613736 149.84375 82.075297 0 148.612713-67.090001 148.612713-149.84375C660.613736 429.238065 594.07632 362.146017 512.001023 362.146017zM512.001023 601.907683c-49.246611 0-89.168856-40.250726-89.168856-89.902566 0-49.659003 39.922245-89.914846 89.168856-89.914846 49.243541 0 89.165786 40.255843 89.165786 89.914846C601.166809 561.656957 561.244564 601.907683 512.001023 601.907683zM931.811368 617.972567l-69.603241-40.521902c3.901867-21.277606 6.462179-43.018769 6.462179-65.446571 0-22.432918-2.561335-44.173059-6.464225-65.453734l69.604264-40.524972c28.431539-16.549931 38.173414-53.210899 21.75856-81.875752l-59.44488-103.821577c-16.414855-28.672016-52.771901-38.493709-81.205487-21.941732l-70.319555 40.935318c-32.855292-28.202319-70.201875-51.246151-111.710244-66.064648l0-50.868551c0-33.104979-26.615171-59.944254-59.445904-59.944254L452.554096 62.444191c-32.829709 0-59.44488 26.839275-59.44488 59.944254l0 50.868551c-41.509393 14.818497-78.855976 37.863353-111.711268 66.064648l-70.319555-40.935318c-28.433586-16.551978-64.788585-6.730285-81.202417 21.941732L70.430072 324.150658c-16.414855 28.664853-6.674003 65.325821 21.75856 81.875752l69.604264 40.521902c-3.901867 21.282722-6.462179 43.022862-6.462179 65.455781 0 22.427802 2.560312 44.171012 6.462179 65.446571l-69.604264 40.521902c-28.431539 16.549931-38.173414 53.210899-21.75856 81.877799l59.446927 103.821577c16.413831 28.664853 52.769854 38.488593 81.202417 21.938662l70.317509-40.940434c32.855292 28.202319 70.201875 51.248198 111.712291 66.067718l0 50.872644c0 33.101909 26.614148 59.941184 59.44488 59.941184l118.891807 0c32.829709 0 59.445904-26.839275 59.445904-59.941184L630.891807 850.738911c41.509393-14.818497 78.855976-37.865399 111.711268-66.067718l70.317509 40.940434c28.433586 16.549931 64.790632 6.726192 81.205487-21.938662l59.44488-103.821577C969.984782 671.184489 960.243931 634.522498 931.811368 617.972567zM887.227963 695.836959l-29.722952 51.907207c-8.207939 14.337543-26.386974 19.249413-40.602743 10.969842l-82.579787-48.074925c-41.918715 47.675836-98.5669 81.875752-162.877601 95.04161l0 65.963341c0 16.549931-13.30605 29.968545-29.722952 29.968545l-59.445904 0c-16.415878 0-29.722952-13.418614-29.722952-29.968545l0-65.963341c-64.310701-13.165858-120.957863-47.365774-162.877601-95.04161l-82.579787 48.074925c-14.21577 8.27957-32.393781 3.367701-40.602743-10.969842l-29.721929-51.907207c-8.208962-14.334473-3.335978-32.662911 10.878768-40.937364l82.913385-48.270377c-9.877975-29.815049-15.790638-61.457724-15.790638-94.623078 0-33.17047 5.91471-64.816215 15.791661-94.633311l-82.914408-48.26833c-14.214746-8.274454-19.087731-26.608008-10.878768-40.937364l29.721929-51.912323c8.208962-14.332427 26.386974-19.246343 40.602743-10.971889l82.582857 48.079018c41.918715-47.677882 98.564853-81.880869 162.874531-95.046726l0-65.958224c0-16.551978 13.30605-29.966499 29.722952-29.966499l59.445904 0c16.415878 0 29.722952 13.413498 29.722952 29.966499l0 65.958224c64.309678 13.165858 120.956839 47.368844 162.874531 95.046726l82.582857-48.079018c14.21577-8.274454 32.394804-3.360538 40.602743 10.971889l29.722952 51.912323c8.207939 14.33038 3.335978 32.662911-10.878768 40.937364l-82.914408 48.270377c9.877975 29.817096 15.790638 61.45977 15.790638 94.630241 0 33.166377-5.912663 64.809051-15.790638 94.623078l82.914408 48.270377C890.563942 663.174048 895.435902 681.501462 887.227963 695.836959z" p-id="1429" fill="#5AAEFF"></path></svg>